<svg id="Layer_1" data-name="Layer 1" xmlns="http://www.w3.org/2000/svg" viewBox="0 0 512 512"><defs><style>.cls-1{fill:#26a3f7;}.cls-2{fill:#dde5e8;}.cls-3{fill:#1d85b2;}.cls-4{fill:#f47878;}.cls-5{fill:#afc3c9;}</style></defs><title>browser-14-flat</title><path class="cls-1" d="M0,115.2V64A64,64,0,0,1,64,0H448a64,64,0,0,1,64,64v51.2Z"/><path class="cls-2" d="M512,115.2V448a64,64,0,0,1-64,64H64A64,64,0,0,1,0,448V115.2Z"/><circle class="cls-3" cx="70.4" cy="57.6" r="19.2"/><circle class="cls-3" cx="121.6" cy="57.6" r="19.2"/><circle class="cls-3" cx="172.8" cy="57.6" r="19.2"/><rect class="cls-4" x="64" y="179.2" width="384" height="102.4" rx="32" ry="32"/><circle class="cls-5" cx="217.6" cy="320" r="12.8"/><circle class="cls-5" cx="256" cy="320" r="12.8"/><circle class="cls-5" cx="294.4" cy="320" r="12.8"/><rect class="cls-4" x="64" y="358.4" width="102.4" height="89.6" rx="32" ry="32"/><rect class="cls-4" x="204.8" y="358.4" width="102.4" height="89.6" rx="32" ry="32"/><rect class="cls-4" x="345.6" y="358.4" width="102.4" height="89.6" rx="32" ry="32"/></svg>